<?xml version="1.0" encoding="UTF-8" standalone="no"?>
<!DOCTYPE svg PUBLIC "-//W3C//DTD SVG 1.1//EN"
 "http://www.w3.org/Graphics/SVG/1.1/DTD/svg11.dtd">
<!-- Generated by graphviz version 2.38.0 (20140413.2041)
 -->
<!-- Title: signals Pages: 1 -->
<svg width="717pt" height="536pt"
 viewBox="0.00 0.00 717.00 536.42" xmlns="http://www.w3.org/2000/svg" xmlns:xlink="http://www.w3.org/1999/xlink">
<g id="graph0" class="graph" transform="scale(1 1) rotate(0) translate(4 532.416)">
<title>signals</title>
<polygon fill="white" stroke="none" points="-4,4 -4,-532.416 713,-532.416 713,4 -4,4"/>
<!-- port -->
<g id="node1" class="node"><title>port</title>
<polygon fill="none" stroke="black" points="428,-36 374,-36 374,-0 428,-0 428,-36"/>
<text text-anchor="middle" x="401" y="-14.9" font-family="Times,serif" font-size="12.00">Port</text>
</g>
<!-- app_actions -->
<g id="node2" class="node"><title>app_actions</title>
<ellipse fill="none" stroke="black" cx="476" cy="-432.375" rx="56.6372" ry="24.0833"/>
<text text-anchor="middle" x="476" y="-435.775" font-family="Times,serif" font-size="12.00">App.actions :</text>
<text text-anchor="middle" x="476" y="-422.775" font-family="Times,serif" font-size="12.00">App.Action</text>
</g>
<!-- app_models -->
<g id="node6" class="node"><title>app_models</title>
<ellipse fill="none" stroke="black" cx="434" cy="-348.291" rx="57.0522" ry="24.0833"/>
<text text-anchor="middle" x="434" y="-351.691" font-family="Times,serif" font-size="12.00">App.models :</text>
<text text-anchor="middle" x="434" y="-338.691" font-family="Times,serif" font-size="12.00">Model</text>
</g>
<!-- app_actions&#45;&gt;app_models -->
<g id="edge4" class="edge"><title>app_actions&#45;&gt;app_models</title>
<path fill="none" stroke="black" d="M464.301,-408.51C459.977,-400.06 454.994,-390.322 450.335,-381.215"/>
<polygon fill="black" stroke="black" points="453.308,-379.342 445.637,-372.034 447.076,-382.53 453.308,-379.342"/>
<text text-anchor="middle" x="416.491" y="-393.516" font-family="Times,serif" font-size="11.00">foldp App.update</text>
</g>
<!-- app_reactions -->
<g id="node9" class="node"><title>app_reactions</title>
<ellipse fill="none" stroke="black" cx="526" cy="-264.208" rx="63.7795" ry="24.0833"/>
<text text-anchor="middle" x="526" y="-267.608" font-family="Times,serif" font-size="12.00">App.reactions :</text>
<text text-anchor="middle" x="526" y="-254.608" font-family="Times,serif" font-size="12.00">Task () ()</text>
</g>
<!-- app_actions&#45;&gt;app_reactions -->
<g id="edge9" class="edge"><title>app_actions&#45;&gt;app_reactions</title>
<path fill="none" stroke="black" d="M486.147,-408.674C490.762,-397.816 496.059,-384.548 500,-372.333 507.878,-347.916 514.635,-319.694 519.285,-298.349"/>
<polygon fill="black" stroke="black" points="522.729,-298.98 521.394,-288.469 515.883,-297.518 522.729,-298.98"/>
<text text-anchor="middle" x="546.361" y="-352.457" font-family="Times,serif" font-size="11.00">map App.reaction</text>
</g>
<!-- focus_actions -->
<g id="node3" class="node"><title>focus_actions</title>
<polygon fill="none" stroke="black" points="375,-528.416 257,-528.416 257,-492.416 375,-492.416 375,-528.416"/>
<text text-anchor="middle" x="316" y="-513.816" font-family="Times,serif" font-size="12.00">FocusTypes.actions :</text>
<text text-anchor="middle" x="316" y="-500.816" font-family="Times,serif" font-size="12.00">FocusTypes.Action</text>
</g>
<!-- focus_actions&#45;&gt;app_actions -->
<g id="edge1" class="edge"><title>focus_actions&#45;&gt;app_actions</title>
<path fill="none" stroke="black" d="M351.907,-492.351C375.028,-481.363 405.294,-466.978 430.147,-455.167"/>
<polygon fill="black" stroke="black" points="431.852,-458.232 439.381,-450.778 428.847,-451.909 431.852,-458.232"/>
<text text-anchor="middle" x="345.789" y="-474.696" font-family="Times,serif" font-size="11.00">map App.FocusAction</text>
</g>
<!-- account_actions -->
<g id="node4" class="node"><title>account_actions</title>
<polygon fill="none" stroke="black" points="559,-528.416 393,-528.416 393,-492.416 559,-492.416 559,-528.416"/>
<text text-anchor="middle" x="476" y="-513.816" font-family="Times,serif" font-size="12.00">AccountServiceTypes.actions :</text>
<text text-anchor="middle" x="476" y="-500.816" font-family="Times,serif" font-size="12.00">AccountServiceTypes.Action</text>
</g>
<!-- account_actions&#45;&gt;app_actions -->
<g id="edge2" class="edge"><title>account_actions&#45;&gt;app_actions</title>
<path fill="none" stroke="black" d="M476,-492.161C476,-484.602 476,-475.464 476,-466.668"/>
<polygon fill="black" stroke="black" points="479.5,-466.616 476,-456.616 472.5,-466.616 479.5,-466.616"/>
<text text-anchor="middle" x="531.5" y="-477.328" font-family="Times,serif" font-size="11.00">map App.AccountAction</text>
</g>
<!-- language_actions -->
<g id="node5" class="node"><title>language_actions</title>
<polygon fill="none" stroke="black" points="709,-528.416 577,-528.416 577,-492.416 709,-492.416 709,-528.416"/>
<text text-anchor="middle" x="643" y="-513.816" font-family="Times,serif" font-size="12.00">LanguageTypes.action :</text>
<text text-anchor="middle" x="643" y="-500.816" font-family="Times,serif" font-size="12.00">LanguageTypes.Action</text>
</g>
<!-- language_actions&#45;&gt;app_actions -->
<g id="edge3" class="edge"><title>language_actions&#45;&gt;app_actions</title>
<path fill="none" stroke="black" d="M605.522,-492.351C581.112,-481.236 549.072,-466.647 522.966,-454.76"/>
<polygon fill="black" stroke="black" points="524.193,-451.473 513.642,-450.514 521.292,-457.844 524.193,-451.473"/>
<text text-anchor="middle" x="490.338" y="-462.749" font-family="Times,serif" font-size="11.00"> &#160;&#160;&#160;&#160;&#160;&#160;&#160;map App.LanguageAction</text>
</g>
<!-- app_deltas -->
<g id="node7" class="node"><title>app_deltas</title>
<ellipse fill="none" stroke="black" cx="308" cy="-264.208" rx="65.5227" ry="24.0833"/>
<text text-anchor="middle" x="308" y="-267.608" font-family="Times,serif" font-size="12.00">App.deltas :</text>
<text text-anchor="middle" x="308" y="-254.608" font-family="Times,serif" font-size="12.00">(Model, Model)</text>
</g>
<!-- app_models&#45;&gt;app_deltas -->
<g id="edge5" class="edge"><title>app_models&#45;&gt;app_deltas</title>
<path fill="none" stroke="black" d="M403.82,-327.63C387.052,-316.707 365.981,-302.98 347.871,-291.182"/>
<polygon fill="black" stroke="black" points="349.539,-288.092 339.25,-285.566 345.718,-293.957 349.539,-288.092"/>
<text text-anchor="middle" x="359.374" y="-309.693" font-family="Times,serif" font-size="11.00">foldp</text>
</g>
<!-- app_main -->
<g id="node8" class="node"><title>app_main</title>
<ellipse fill="none" stroke="black" cx="449" cy="-180.125" rx="49.4949" ry="24.0833"/>
<text text-anchor="middle" x="449" y="-183.525" font-family="Times,serif" font-size="12.00">App.main :</text>
<text text-anchor="middle" x="449" y="-170.525" font-family="Times,serif" font-size="12.00">Html</text>
</g>
<!-- app_models&#45;&gt;app_main -->
<g id="edge7" class="edge"><title>app_models&#45;&gt;app_main</title>
<path fill="none" stroke="black" d="M436.086,-324.187C438.653,-295.744 443.033,-247.222 445.971,-214.674"/>
<polygon fill="black" stroke="black" points="449.495,-214.575 446.908,-204.301 442.523,-213.945 449.495,-214.575"/>
<text text-anchor="middle" x="408.976" y="-267.676" font-family="Times,serif" font-size="11.00">map App.view</text>
</g>
<!-- app_paths -->
<g id="node12" class="node"><title>app_paths</title>
<ellipse fill="none" stroke="black" cx="258" cy="-180.125" rx="123.073" ry="24.0833"/>
<text text-anchor="middle" x="258" y="-183.525" font-family="Times,serif" font-size="12.00">App.paths :</text>
<text text-anchor="middle" x="258" y="-170.525" font-family="Times,serif" font-size="12.00">Maybe RouteService.PathAction</text>
</g>
<!-- app_deltas&#45;&gt;app_paths -->
<g id="edge11" class="edge"><title>app_deltas&#45;&gt;app_paths</title>
<path fill="none" stroke="black" d="M294.072,-240.343C288.861,-231.788 282.845,-221.911 277.237,-212.706"/>
<polygon fill="black" stroke="black" points="280.218,-210.871 272.027,-204.152 274.24,-214.513 280.218,-210.871"/>
<text text-anchor="middle" x="209.115" y="-225.556" font-family="Times,serif" font-size="11.00">passiveMap2 FocusUI.delta2path</text>
</g>
<!-- app_main&#45;&gt;port -->
<g id="edge6" class="edge"><title>app_main&#45;&gt;port</title>
<path fill="none" stroke="black" d="M447.086,-156.005C444.754,-133.929 439.836,-99.9758 430,-72 426.73,-62.6988 421.951,-53.0823 417.213,-44.6362"/>
<polygon fill="black" stroke="black" points="420.231,-42.8645 412.16,-36.0009 414.189,-46.3996 420.231,-42.8645"/>
</g>
<!-- app_reactions&#45;&gt;port -->
<g id="edge8" class="edge"><title>app_reactions&#45;&gt;port</title>
<path fill="none" stroke="black" d="M524.678,-239.865C522.774,-217.626 518.155,-183.56 507,-156.083 488.848,-111.37 451.827,-68.87 426.71,-43.3644"/>
<polygon fill="black" stroke="black" points="428.885,-40.5907 419.331,-36.0108 423.943,-45.5489 428.885,-40.5907"/>
</g>
<!-- history_hash -->
<g id="node10" class="node"><title>history_hash</title>
<ellipse fill="none" stroke="black" cx="123" cy="-348.291" rx="59.2941" ry="24.0833"/>
<text text-anchor="middle" x="123" y="-351.691" font-family="Times,serif" font-size="12.00">History.hash :</text>
<text text-anchor="middle" x="123" y="-338.691" font-family="Times,serif" font-size="12.00">String</text>
</g>
<!-- route_routes -->
<g id="node11" class="node"><title>route_routes</title>
<ellipse fill="none" stroke="black" cx="123" cy="-264.208" rx="84.7059" ry="24.0833"/>
<text text-anchor="middle" x="123" y="-267.608" font-family="Times,serif" font-size="12.00">RouteService.routes :</text>
<text text-anchor="middle" x="123" y="-254.608" font-family="Times,serif" font-size="12.00">List String</text>
</g>
<!-- history_hash&#45;&gt;route_routes -->
<g id="edge10" class="edge"><title>history_hash&#45;&gt;route_routes</title>
<path fill="none" stroke="black" d="M123,-323.989C123,-316.037 123,-306.984 123,-298.406"/>
<polygon fill="black" stroke="black" points="126.5,-298.284 123,-288.285 119.5,-298.285 126.5,-298.284"/>
<text text-anchor="middle" x="61.5" y="-309.33" font-family="Times,serif" font-size="11.00">map RouteService.hash2list</text>
</g>
<!-- route_routes&#45;&gt;app_paths -->
<g id="edge12" class="edge"><title>route_routes&#45;&gt;app_paths</title>
<path fill="none" stroke="black" stroke-dasharray="5,2" d="M157.766,-242.07C174.55,-231.864 194.898,-219.493 212.863,-208.57"/>
<polygon fill="black" stroke="black" points="214.738,-211.525 221.464,-203.339 211.101,-205.544 214.738,-211.525"/>
</g>
<!-- app_routes -->
<g id="node14" class="node"><title>app_routes</title>
<ellipse fill="none" stroke="black" cx="215" cy="-96.0416" rx="53.9813" ry="24.0833"/>
<text text-anchor="middle" x="215" y="-99.4416" font-family="Times,serif" font-size="12.00">App.routes :</text>
<text text-anchor="middle" x="215" y="-86.4416" font-family="Times,serif" font-size="12.00">Task () ()</text>
</g>
<!-- route_routes&#45;&gt;app_routes -->
<g id="edge16" class="edge"><title>route_routes&#45;&gt;app_routes</title>
<path fill="none" stroke="black" d="M117.784,-239.865C113.967,-217.011 111.648,-181.951 126,-156.083 135.184,-139.53 151.198,-126.789 167.133,-117.453"/>
<polygon fill="black" stroke="black" points="168.858,-120.499 175.934,-112.614 165.485,-114.365 168.858,-120.499"/>
<text text-anchor="middle" x="73.0135" y="-159.259" font-family="Times,serif" font-size="11.00">passiveMap2 App.route</text>
</g>
<!-- app_path_tasks -->
<g id="node13" class="node"><title>app_path_tasks</title>
<ellipse fill="none" stroke="black" cx="354" cy="-96.0416" rx="67.3507" ry="24.0833"/>
<text text-anchor="middle" x="354" y="-99.4416" font-family="Times,serif" font-size="12.00">App.pathTasks :</text>
<text text-anchor="middle" x="354" y="-86.4416" font-family="Times,serif" font-size="12.00">Task () ()</text>
</g>
<!-- app_paths&#45;&gt;app_path_tasks -->
<g id="edge13" class="edge"><title>app_paths&#45;&gt;app_path_tasks</title>
<path fill="none" stroke="black" d="M284.487,-156.478C295.868,-146.746 309.284,-135.275 321.28,-125.019"/>
<polygon fill="black" stroke="black" points="323.595,-127.644 328.921,-118.485 319.046,-122.323 323.595,-127.644"/>
</g>
<!-- app_paths&#45;&gt;app_routes -->
<g id="edge17" class="edge"><title>app_paths&#45;&gt;app_routes</title>
<path fill="none" stroke="black" stroke-dasharray="5,2" d="M245.793,-155.823C241.37,-147.38 236.298,-137.697 231.563,-128.659"/>
<polygon fill="black" stroke="black" points="234.533,-126.787 226.793,-119.553 228.333,-130.035 234.533,-126.787"/>
</g>
<!-- app_path_tasks&#45;&gt;port -->
<g id="edge14" class="edge"><title>app_path_tasks&#45;&gt;port</title>
<path fill="none" stroke="black" d="M368.102,-72.2266C373.4,-63.6549 379.461,-53.8487 384.925,-45.0082"/>
<polygon fill="black" stroke="black" points="388.066,-46.5837 390.346,-36.2372 382.111,-42.9034 388.066,-46.5837"/>
</g>
<!-- app_routes&#45;&gt;port -->
<g id="edge15" class="edge"><title>app_routes&#45;&gt;port</title>
<path fill="none" stroke="black" d="M253.539,-79.2858C286.133,-65.9605 332.507,-47.0017 364.506,-33.9195"/>
<polygon fill="black" stroke="black" points="366.013,-37.0849 373.945,-30.0609 363.364,-30.6055 366.013,-37.0849"/>
</g>
</g>
</svg>
